<?xml version="1.0" standalone="no"?>
<!DOCTYPE svg PUBLIC "-//W3C//DTD SVG 20010904//EN"
 "http://www.w3.org/TR/2001/REC-SVG-20010904/DTD/svg10.dtd">
<svg version="1.0" xmlns="http://www.w3.org/2000/svg"
 width="828.000000pt" height="828.000000pt" viewBox="0 0 828.000000 828.000000"
 preserveAspectRatio="xMidYMid meet">

<g transform="translate(0.000000,828.000000) scale(0.100000,-0.100000)"
fill="#000000" stroke="none">
<path d="M1010 8255 c0 -14 -4 -25 -10 -25 -5 0 -10 -15 -10 -34 0 -21 -6 -36
-15 -40 -9 -3 -15 -18 -15 -36 0 -16 -4 -30 -10 -30 -5 0 -10 -13 -10 -29 0
-17 -4 -33 -10 -36 -5 -3 -10 -20 -10 -36 0 -17 -6 -32 -15 -35 -9 -4 -15 -19
-15 -39 0 -19 -4 -36 -9 -40 -5 -3 -13 -34 -16 -70 -4 -36 -11 -65 -16 -65 -5
0 -9 -13 -9 -29 0 -17 -4 -32 -9 -35 -5 -3 -12 -22 -15 -41 -3 -19 -9 -51 -12
-70 -3 -19 -10 -38 -15 -41 -5 -3 -9 -18 -9 -35 0 -16 -4 -37 -10 -47 -9 -17
-17 -55 -49 -237 -9 -55 -20 -107 -23 -115 -10 -24 -18 -66 -39 -200 -11 -69
-24 -139 -30 -156 -5 -17 -10 -83 -12 -147 -1 -64 -5 -117 -9 -117 -5 0 -8 -7
-8 -15 0 -10 -10 -15 -30 -15 -20 0 -30 -5 -30 -15 0 -13 -25 -21 -53 -16 -4
1 -10 -6 -13 -14 -4 -9 -19 -15 -35 -15 -16 0 -29 -4 -29 -10 0 -5 -15 -10
-34 -10 -19 0 -38 -4 -41 -10 -3 -5 -19 -10 -34 -10 -15 0 -31 -4 -36 -9 -6
-5 -55 -14 -110 -20 -159 -19 -155 -17 -155 -58 0 -41 21 -62 61 -63 18 0 28
-7 32 -20 3 -11 9 -20 14 -19 24 4 43 -3 43 -16 0 -10 10 -15 30 -15 18 0 33
-6 36 -15 4 -9 20 -15 43 -16 21 -1 28 -3 16 -6 -11 -3 -24 -9 -30 -14 -5 -5
-16 -9 -25 -9 -8 0 -27 -7 -42 -14 -16 -8 -49 -18 -75 -21 -27 -4 -60 -12 -76
-18 l-27 -12 0 -227 c0 -145 4 -228 10 -228 6 0 10 -7 10 -15 0 -8 9 -15 20
-15 11 0 29 -9 40 -20 11 -11 23 -19 28 -19 21 4 42 -2 42 -12 0 -11 -101 -6
-135 7 -12 5 -15 -3 -15 -45 0 -39 4 -51 15 -51 8 0 23 -4 33 -9 9 -6 29 -12
43 -15 15 -3 29 -13 33 -21 4 -12 -6 -15 -59 -15 l-65 0 0 -230 0 -230 25 0
c18 0 25 -5 25 -20 0 -16 7 -20 31 -20 22 0 32 -5 36 -20 3 -13 14 -20 29 -20
13 0 24 -4 24 -10 0 -5 -13 -10 -29 -10 -20 0 -30 -6 -34 -20 -4 -15 -14 -20
-36 -20 -24 0 -31 -4 -31 -20 0 -13 -7 -20 -20 -20 -18 0 -20 -7 -20 -64 l0
-63 138 -18 c80 -10 141 -22 147 -30 6 -7 41 -16 78 -20 37 -4 67 -11 67 -16
0 -5 13 -9 29 -9 17 0 33 -4 36 -10 3 -5 19 -10 35 -10 16 0 32 -4 35 -10 4
-6 -38 -9 -117 -7 l-123 2 0 -40 0 -40 52 -9 c37 -6 53 -14 56 -27 4 -13 14
-19 36 -19 33 0 44 -23 16 -34 -8 -3 -15 -17 -15 -31 0 -20 -5 -25 -25 -25
-20 0 -25 -5 -25 -25 0 -20 -5 -25 -25 -25 -20 0 -25 -5 -25 -25 0 -20 -5 -25
-25 -25 -20 0 -25 -5 -25 -26 0 -17 -6 -28 -19 -31 -11 -3 -21 -15 -23 -26 -2
-13 -13 -23 -28 -27 -18 -4 -26 -13 -28 -33 -3 -21 -9 -27 -28 -27 -19 0 -24
-5 -24 -25 0 -18 -5 -25 -19 -25 -14 0 -21 -8 -23 -27 -2 -20 -9 -29 -25 -31
-15 -2 -23 -11 -25 -30 -2 -19 -10 -28 -26 -30 -16 -3 -22 -10 -22 -28 0 -15
-6 -24 -15 -24 -13 0 -15 -212 -15 -1850 l0 -1850 4000 0 c3551 0 3999 2 3994
15 -4 9 -19 15 -35 15 -16 0 -29 5 -29 10 0 6 -15 10 -34 10 -19 0 -38 4 -41
10 -3 5 -19 10 -35 10 -16 0 -32 4 -35 10 -3 5 -22 10 -41 10 -19 0 -34 5 -34
10 0 6 -13 10 -29 10 -17 0 -33 5 -36 10 -3 6 -22 10 -41 10 -19 0 -34 4 -34
8 0 7 -26 13 -168 38 -19 4 -36 13 -39 20 -3 8 -18 14 -33 14 -15 0 -33 6 -39
14 -7 8 -41 18 -77 21 -35 4 -64 11 -64 16 0 5 -16 9 -35 9 -19 0 -35 5 -35
10 0 6 -13 10 -29 10 -16 0 -34 6 -40 14 -7 8 -42 17 -81 21 -39 4 -70 11 -70
16 0 5 -13 9 -30 9 -16 0 -30 5 -30 10 0 6 -13 10 -29 10 -16 0 -34 7 -41 15
-7 8 -25 15 -41 15 -16 0 -29 5 -29 10 0 6 -16 10 -35 10 -19 0 -35 5 -35 10
0 6 -14 10 -30 10 -18 0 -33 6 -36 15 -4 8 -18 15 -34 15 -16 0 -30 7 -34 15
-3 9 -18 15 -35 15 -16 0 -33 5 -36 10 -3 6 -19 10 -35 10 -16 0 -32 4 -35 10
-3 5 -19 10 -34 10 -16 0 -34 7 -41 15 -7 8 -25 15 -41 15 -16 0 -29 5 -29 10
0 6 -16 10 -35 10 -19 0 -35 5 -35 10 0 6 -11 10 -24 10 -18 0 -25 6 -28 22
-2 15 -11 24 -27 26 -13 2 -26 12 -28 23 -5 16 -27 25 -55 20 -5 0 -8 8 -8 18
0 14 -8 21 -27 23 -20 2 -29 9 -31 25 -3 18 -10 23 -33 23 -22 0 -29 5 -29 20
0 15 -7 20 -24 20 -18 0 -25 6 -28 22 -2 16 -11 24 -30 26 -16 2 -30 11 -33
23 -4 13 -15 19 -36 19 -22 0 -29 5 -29 20 0 15 -7 20 -24 20 -18 0 -25 6 -28
22 -2 18 -11 24 -36 26 -18 2 -36 10 -39 18 -3 8 -15 14 -28 14 -13 0 -25 7
-29 15 -3 8 -17 15 -31 15 -30 0 -65 32 -65 60 0 15 7 20 25 20 18 0 28 7 35
25 6 15 17 25 29 25 10 0 21 9 24 19 2 11 15 21 28 23 16 2 25 11 27 26 3 17
10 22 33 22 22 0 29 5 29 20 0 16 7 20 30 20 25 0 30 4 30 25 0 20 5 25 24 25
17 0 26 7 30 24 4 15 14 26 29 28 14 2 23 11 25 26 3 16 10 22 28 22 17 0 24
6 24 19 0 15 8 21 33 23 24 2 33 8 35 25 2 14 11 23 25 25 14 2 23 11 25 26 3
16 10 22 28 22 17 0 24 5 24 20 0 15 7 20 29 20 25 0 30 4 33 28 2 19 9 28 26
30 14 2 22 10 22 23 0 14 9 21 30 26 21 4 29 11 28 22 -2 11 6 17 24 19 19 2
28 10 30 25 2 14 11 23 25 25 14 2 23 11 25 25 2 15 11 23 30 25 19 2 28 10
30 25 2 14 11 23 25 25 14 2 23 11 25 25 2 16 11 23 31 25 21 3 27 9 27 28 0
19 5 24 25 24 14 0 26 5 26 10 1 6 2 16 3 23 0 6 11 13 24 15 16 3 22 10 22
28 0 17 7 25 24 30 15 3 26 14 28 27 2 16 11 23 31 25 21 3 27 9 27 26 0 15 7
26 20 29 13 3 20 14 20 30 0 19 6 26 23 29 15 2 23 11 25 30 2 19 10 28 25 30
17 2 23 11 25 35 2 21 9 33 18 33 8 0 14 10 14 24 0 15 7 26 20 29 15 4 20 14
20 36 0 21 5 31 15 31 10 0 15 11 15 35 0 24 5 35 15 35 9 0 15 9 15 25 0 14
7 28 15 31 9 4 15 19 15 39 0 20 6 35 15 39 9 3 15 18 15 36 0 19 5 30 14 30
9 0 16 20 21 65 3 36 11 67 16 70 5 4 9 20 9 36 0 17 6 32 15 35 8 4 15 19 15
34 0 16 5 32 10 35 6 3 10 21 10 40 0 20 6 35 15 39 9 3 15 18 15 36 0 16 5
30 10 30 6 0 10 16 10 35 0 19 5 35 10 35 6 0 10 13 10 28 0 16 3 32 8 36 4 4
12 26 17 49 9 35 15 43 37 45 19 2 28 10 30 25 2 16 11 23 31 25 21 3 27 9 27
28 0 19 5 24 25 24 20 0 25 5 25 25 0 20 5 25 24 25 19 0 25 6 28 28 2 19 9
28 26 30 16 2 22 10 22 27 0 17 6 25 23 27 16 2 23 11 25 31 2 19 9 27 23 27
14 0 19 7 19 26 0 17 6 28 20 31 14 4 20 14 20 34 0 22 5 29 19 29 15 0 21 8
23 33 2 27 7 32 28 32 25 0 25 0 28 -110 4 -129 -14 -300 -34 -320 -8 -7 -14
-25 -14 -39 0 -14 -4 -28 -10 -31 -6 -3 -10 -20 -10 -36 0 -17 -6 -32 -15 -35
-9 -4 -15 -19 -15 -35 0 -19 -5 -29 -15 -29 -10 0 -15 -10 -15 -29 0 -20 -6
-30 -20 -34 -12 -3 -20 -14 -20 -25 0 -14 -8 -22 -22 -24 -19 -2 -24 -10 -26
-40 l-3 -38 40 0 c34 0 41 3 41 20 0 15 7 20 26 20 18 0 28 6 31 21 4 12 17
22 34 26 20 4 29 12 29 24 0 14 7 19 25 19 21 0 25 5 25 29 0 23 5 30 23 33
14 2 23 11 25 26 3 16 10 22 28 22 19 0 24 5 24 26 0 17 6 28 20 31 14 4 20
14 20 33 0 22 5 29 23 32 16 2 23 11 25 31 2 15 9 27 18 27 9 0 14 11 14 31 0
18 7 37 17 44 9 7 17 21 18 33 0 11 6 26 12 34 6 7 18 67 27 132 9 66 17 121
19 122 1 1 12 -2 25 -7 14 -5 22 -17 22 -33 0 -15 7 -25 20 -29 15 -4 20 -14
20 -36 0 -24 4 -31 20 -31 15 0 20 -7 20 -29 0 -20 6 -30 20 -34 12 -3 20 -14
20 -26 0 -14 8 -23 25 -27 18 -4 25 -13 25 -30 0 -17 6 -24 20 -24 16 0 20 -7
20 -35 0 -20 5 -35 11 -35 20 0 5 201 -15 212 -9 5 -16 20 -16 34 0 13 -7 27
-15 30 -8 4 -15 19 -15 35 0 15 -6 32 -14 36 -9 5 -17 35 -21 81 l-8 72 57 0
56 0 0 46 0 46 -32 -6 c-70 -13 -186 -25 -240 -26 -31 0 -60 -4 -63 -10 -3 -5
-37 -10 -75 -10 -38 0 -72 -5 -75 -10 -3 -5 -34 -10 -69 -10 -34 0 -66 -3 -70
-7 -4 -5 -40 -14 -79 -20 -40 -7 -76 -14 -82 -16 -5 -2 -50 -9 -100 -17 -49
-7 -94 -17 -99 -21 -6 -5 -25 -9 -42 -9 -18 0 -36 -4 -39 -10 -3 -6 -17 -10
-31 -10 -13 0 -32 -4 -42 -10 -9 -5 -42 -14 -72 -19 -30 -5 -75 -15 -100 -21
-25 -6 -72 -16 -105 -22 -33 -6 -66 -16 -74 -22 -7 -5 -25 -12 -40 -14 -14 -2
-30 -7 -35 -13 -6 -5 -23 -9 -38 -9 -15 0 -28 -4 -28 -10 0 -5 -16 -10 -35
-10 -19 0 -35 -4 -35 -10 0 -5 -15 -10 -34 -10 -19 0 -38 -4 -41 -10 -3 -5
-19 -10 -35 -10 -16 0 -32 -5 -35 -11 -4 -6 -13 -8 -20 -5 -7 2 -24 -2 -39 -9
-15 -8 -53 -17 -86 -21 -36 -4 -61 -12 -64 -20 -3 -8 -19 -14 -35 -14 -16 0
-33 -4 -36 -10 -3 -5 -19 -10 -35 -10 -16 0 -31 -4 -34 -9 -7 -11 -57 -20
-147 -27 -52 -4 -68 -2 -78 10 -11 13 -11 16 3 17 29 3 34 4 42 12 4 4 22 7
41 7 18 0 33 5 33 10 0 6 16 10 35 10 19 0 35 5 35 10 0 6 13 10 29 10 17 0
33 5 36 10 3 5 21 10 40 10 19 0 35 6 38 14 4 9 29 17 71 21 37 4 69 11 72 16
3 5 16 9 29 9 13 0 27 4 30 10 3 5 19 10 34 10 16 0 34 7 41 15 7 8 25 15 41
15 15 0 31 5 34 10 3 6 22 10 41 10 19 0 34 5 34 10 0 6 14 10 30 10 17 0 30
4 30 9 0 5 17 11 38 15 87 13 112 19 112 26 0 4 32 11 70 15 39 4 72 11 75 15
3 4 32 11 65 15 33 4 63 11 66 16 3 5 20 9 39 9 19 0 36 4 39 9 3 5 20 11 38
15 18 3 80 14 138 24 58 10 112 21 120 25 8 3 42 8 75 11 68 5 332 49 355 59
18 7 160 24 283 33 l87 6 0 754 c0 747 0 754 -20 754 -13 0 -20 7 -20 20 0 16
-7 20 -31 20 -22 0 -32 5 -36 20 -4 14 -14 20 -34 20 -19 0 -29 5 -29 15 0 8
-6 15 -13 15 -10 0 -13 66 -15 303 -1 166 -5 320 -8 342 -2 22 -9 141 -15 265
-16 360 -39 668 -58 805 -6 39 -11 91 -11 117 0 26 -4 49 -9 52 -5 3 -12 37
-16 76 -4 39 -11 73 -16 76 -5 3 -9 19 -9 35 0 17 -6 32 -15 35 -9 4 -15 19
-15 40 0 24 -5 34 -15 34 -10 0 -15 10 -15 29 0 16 -6 31 -15 35 -8 3 -15 16
-15 30 0 16 -7 27 -20 31 -14 4 -20 15 -20 36 0 22 -5 29 -20 29 -11 0 -20 7
-20 15 0 13 -382 15 -3380 15 l-3380 0 0 -25z m633 -2951 c4 -8 19 -14 32 -14
18 0 25 -6 25 -19 0 -13 9 -20 30 -24 24 -5 30 -12 30 -32 0 -18 5 -25 20 -25
15 0 20 -7 20 -24 0 -18 6 -25 23 -28 16 -2 23 -11 25 -30 3 -22 9 -28 28 -28
19 0 24 -5 24 -26 0 -17 6 -28 20 -31 13 -3 20 -14 20 -29 0 -17 6 -24 20 -24
15 0 20 -7 20 -29 0 -21 6 -32 19 -36 11 -3 22 -19 26 -35 4 -17 13 -30 21
-30 9 0 14 -11 14 -30 0 -23 4 -30 20 -30 16 0 20 -7 20 -30 0 -28 2 -30 40
-30 40 0 40 0 40 39 0 22 -5 41 -12 43 -10 4 -10 40 0 169 6 90 15 174 18 186
12 42 24 12 24 -57 0 -38 5 -72 10 -75 6 -3 10 -37 10 -75 0 -38 4 -71 9 -75
5 -3 13 -34 16 -70 4 -36 11 -68 16 -71 5 -3 9 -18 9 -34 0 -16 5 -32 10 -35
6 -3 10 -20 10 -36 0 -17 6 -32 15 -35 9 -4 15 -19 15 -40 0 -19 5 -34 10 -34
6 0 10 -14 10 -30 0 -18 6 -33 15 -36 9 -4 15 -19 15 -35 0 -23 5 -29 21 -29
19 0 20 -4 13 -70 l-7 -70 47 0 c42 0 46 2 46 24 0 15 7 26 20 29 14 3 20 14
20 31 0 19 7 29 25 36 15 6 25 17 25 29 0 13 8 21 23 23 16 2 23 11 25 31 2
19 9 27 23 27 15 0 19 7 19 35 0 27 4 35 19 35 14 0 18 6 15 26 -2 19 3 28 17
31 14 4 19 14 19 39 0 24 5 34 15 34 10 0 15 10 15 29 0 16 6 31 15 35 9 3 15
19 15 41 0 19 5 35 10 35 6 0 10 13 10 29 0 17 5 33 10 36 6 3 10 18 10 33 0
16 8 32 19 39 17 11 19 7 26 -53 10 -95 -16 -407 -36 -428 -5 -6 -9 -23 -9
-38 0 -15 -4 -28 -10 -28 -5 0 -10 -16 -10 -35 0 -19 -4 -35 -10 -35 -5 0 -10
-13 -10 -30 0 -20 -5 -30 -15 -30 -8 0 -15 -9 -15 -20 0 -10 -6 -23 -14 -27
-8 -4 -15 -17 -18 -28 -2 -14 -11 -20 -28 -20 -22 0 -25 -5 -28 -42 l-3 -43
41 0 c34 0 42 4 50 25 6 15 17 25 29 25 10 0 21 9 24 20 3 14 14 20 31 20 14
0 27 5 27 10 1 6 2 14 3 19 3 21 16 23 16 3 0 -17 6 -22 25 -22 20 0 25 -5 25
-25 0 -21 5 -25 29 -25 20 0 30 -6 34 -20 3 -14 14 -20 31 -20 19 0 26 -5 26
-19 0 -13 9 -20 30 -24 21 -5 30 -12 30 -27 0 -17 7 -20 40 -20 l40 0 0 45 c0
43 -1 45 -30 45 -23 0 -30 4 -30 20 0 16 -7 20 -30 20 -23 0 -30 4 -30 20 0
15 -7 20 -25 20 -18 0 -25 5 -25 19 0 10 -7 24 -15 31 -19 16 -10 30 20 30 13
0 27 5 30 10 3 6 19 10 36 10 19 0 29 5 29 15 0 10 11 15 35 15 19 0 35 5 35
10 0 6 14 10 31 10 18 0 37 7 44 17 12 16 40 10 30 -7 -3 -4 2 -13 10 -20 8
-7 15 -25 15 -41 0 -16 5 -29 10 -29 6 0 10 -18 10 -40 0 -22 5 -40 10 -40 6
0 10 -11 10 -25 0 -14 7 -28 15 -31 9 -4 15 -19 15 -40 0 -33 1 -34 39 -34 53
0 71 43 31 77 -11 10 -20 29 -20 43 0 14 -4 30 -10 36 -5 5 -6 43 -2 94 7 79
9 85 32 91 38 11 339 9 395 -2 28 -6 64 -13 82 -16 35 -6 38 -11 48 -77 6 -38
5 -46 -8 -46 -10 0 -17 -11 -19 -27 -2 -20 -9 -29 -25 -31 -13 -2 -23 -9 -23
-17 0 -18 -109 -30 -194 -20 -52 5 -65 10 -69 26 -3 11 -14 19 -26 19 -16 0
-21 6 -21 25 0 23 -4 25 -40 25 l-40 0 0 -40 c0 -33 3 -40 20 -40 15 0 20 -7
20 -25 0 -18 5 -25 20 -25 11 0 21 -7 21 -15 1 -8 3 -19 4 -25 1 -5 3 -14 4
-19 0 -5 11 -11 24 -13 14 -2 23 -11 25 -25 3 -17 10 -23 28 -23 17 0 24 -5
24 -20 0 -16 7 -20 31 -20 22 0 32 -5 36 -20 3 -13 14 -20 28 -20 12 0 28 -7
35 -15 7 -8 25 -15 41 -15 15 0 31 -4 34 -10 3 -5 19 -10 35 -10 16 0 32 -4
35 -10 4 -6 67 -10 156 -10 126 0 149 2 149 15 0 10 11 15 35 15 28 0 35 4 35
20 0 16 7 20 30 20 23 0 30 4 30 20 0 15 7 20 25 20 14 0 28 7 31 15 9 23 44
19 44 -5 0 -15 7 -20 26 -20 17 0 28 -6 31 -20 3 -11 13 -20 23 -20 29 0 50
-11 50 -26 0 -8 10 -14 24 -14 15 0 26 -7 29 -20 4 -15 14 -20 36 -20 21 0 31
-5 31 -15 0 -8 3 -15 8 -16 4 0 18 -2 31 -3 14 -2 27 -8 29 -14 2 -7 14 -12
26 -12 12 0 30 -9 40 -21 11 -13 25 -19 37 -16 12 3 23 -2 29 -14 7 -12 21
-19 39 -19 16 0 31 -7 35 -15 3 -9 18 -15 35 -15 17 0 31 -6 35 -15 4 -10 14
-14 31 -11 13 3 27 0 30 -5 4 -5 21 -9 38 -9 61 -1 78 -35 98 -193 6 -53 15
-100 20 -103 5 -3 9 -30 9 -60 0 -41 -4 -54 -15 -54 -10 0 -15 -11 -15 -35 0
-24 -5 -35 -15 -35 -10 0 -15 -10 -15 -30 0 -23 -5 -30 -19 -30 -14 0 -21 -8
-23 -27 -2 -20 -10 -29 -28 -33 -20 -5 -26 -13 -28 -43 l-3 -37 45 0 c42 0 46
2 46 25 0 19 5 25 21 25 12 0 23 8 26 20 4 13 14 20 30 20 16 0 27 7 30 20 4
14 14 20 34 20 22 0 29 5 29 20 0 15 7 20 25 20 18 0 28 7 35 25 7 18 17 25
35 25 18 0 25 5 25 20 0 16 7 20 30 20 25 0 30 4 30 25 0 21 5 25 30 25 23 0
30 4 30 20 0 14 7 20 24 20 18 0 25 7 30 30 4 24 11 30 31 30 18 0 25 5 25 20
0 15 7 20 29 20 23 0 30 5 33 23 2 14 11 23 26 25 16 2 22 10 22 27 0 17 6 25
23 27 14 2 23 11 25 25 2 15 11 23 30 25 19 2 28 10 30 26 2 13 10 22 21 22
11 0 24 12 31 29 10 25 18 30 56 33 l44 3 -7 -50 c-13 -91 -9 -423 5 -436 6
-7 12 -28 12 -46 0 -18 5 -33 10 -33 6 0 10 -16 10 -35 0 -19 5 -35 10 -35 6
0 10 -16 10 -35 0 -24 5 -35 15 -35 9 0 15 -10 15 -26 0 -17 6 -28 20 -31 14
-4 20 -14 20 -35 0 -21 6 -31 20 -35 13 -3 20 -14 20 -28 0 -17 7 -25 23 -27
15 -2 23 -11 25 -30 2 -18 11 -28 28 -32 29 -8 32 -32 4 -39 -12 -3 -20 -14
-20 -26 0 -16 -6 -21 -25 -21 -18 0 -25 -5 -25 -19 0 -13 -9 -20 -30 -25 -21
-4 -30 -11 -30 -26 0 -15 -7 -20 -26 -20 -17 0 -28 -6 -31 -20 -3 -13 -14 -20
-29 -20 -19 0 -24 -5 -24 -24 0 -19 -6 -25 -27 -28 -20 -2 -29 -9 -31 -25 -3
-18 -10 -23 -33 -23 -22 0 -29 -5 -29 -19 0 -14 -8 -21 -27 -23 -25 -3 -28 -7
-28 -43 l0 -40 40 0 c34 0 40 3 43 23 3 16 10 22 29 22 16 0 27 7 30 20 3 13
14 20 28 20 17 0 25 7 27 23 2 16 11 23 31 25 21 3 27 9 27 28 0 20 5 24 30
24 23 0 30 4 30 20 0 15 7 20 25 20 18 0 25 5 25 20 0 15 7 20 29 20 23 0 30
5 33 22 2 14 12 24 28 28 19 4 26 13 28 38 2 18 7 32 13 32 5 0 9 17 9 39 0
30 -4 40 -20 44 -13 3 -20 14 -20 30 0 19 -6 26 -22 29 -15 2 -24 11 -26 27
-2 13 -12 26 -23 28 -13 4 -19 14 -19 33 0 19 -6 29 -20 33 -14 3 -20 14 -20
31 0 14 -4 26 -10 26 -5 0 -10 16 -10 35 0 24 -5 35 -15 35 -10 0 -15 11 -15
35 0 19 -4 35 -10 35 -5 0 -10 16 -10 35 0 19 -4 35 -9 35 -17 0 -22 122 -12
275 10 161 17 225 25 232 3 3 26 8 51 10 25 3 48 10 51 14 10 16 24 9 24 -11
0 -16 7 -20 35 -20 24 0 35 -5 35 -15 0 -9 10 -15 26 -15 17 0 28 -6 31 -20 4
-15 14 -20 38 -20 18 0 35 -5 37 -11 3 -8 26 -9 77 -4 60 6 74 11 78 26 4 13
14 19 33 19 19 0 29 6 33 20 3 14 14 20 32 20 18 0 29 6 32 20 3 13 14 20 28
20 15 0 26 8 30 20 3 11 15 20 26 20 12 0 23 10 29 25 7 17 17 25 34 25 18 0
25 6 28 23 2 14 10 22 23 22 15 0 21 8 23 33 2 22 8 32 21 32 9 0 21 4 26 9 6
5 28 11 50 15 l41 6 -4 -38 c-3 -20 -11 -41 -18 -45 -8 -4 -14 -19 -14 -32 0
-14 -4 -25 -10 -25 -5 0 -10 -14 -10 -31 0 -22 -5 -32 -20 -36 -14 -4 -20 -14
-20 -33 0 -19 -6 -29 -20 -33 -14 -3 -20 -14 -20 -31 0 -15 -6 -26 -14 -26 -7
0 -16 -13 -19 -29 -4 -18 -14 -30 -27 -34 -12 -3 -20 -11 -19 -19 4 -29 -2
-38 -26 -38 -15 0 -25 -6 -25 -14 0 -9 -12 -16 -27 -18 -25 -3 -28 -7 -28 -43
0 -38 2 -40 34 -43 23 -2 37 2 43 12 5 9 18 16 28 16 15 0 20 -7 20 -29 0 -16
-6 -31 -15 -35 -9 -3 -15 -18 -15 -36 0 -18 -6 -33 -15 -36 -8 -4 -15 -19 -15
-34 0 -16 -4 -31 -8 -34 -5 -3 -15 -31 -22 -63 -7 -32 -19 -65 -27 -74 -7 -8
-13 -30 -13 -47 0 -17 -4 -33 -9 -36 -5 -3 -12 -31 -16 -61 -5 -39 -12 -58
-26 -65 -12 -7 -19 -21 -19 -40 0 -17 -4 -30 -10 -30 -5 0 -10 -15 -10 -34 0
-21 -6 -36 -15 -40 -9 -3 -15 -18 -15 -36 0 -20 -5 -30 -15 -30 -10 0 -15 -10
-15 -30 0 -20 -5 -30 -15 -30 -10 0 -15 -11 -15 -35 0 -28 -4 -35 -20 -35 -15
0 -20 -7 -20 -26 0 -17 -6 -28 -20 -31 -14 -4 -20 -14 -20 -34 0 -22 -5 -29
-20 -29 -15 0 -20 -7 -20 -24 0 -18 -6 -26 -22 -28 -14 -2 -24 -12 -28 -28 -4
-16 -14 -26 -28 -28 -16 -2 -22 -10 -22 -27 0 -17 -6 -25 -22 -27 -15 -2 -24
-11 -26 -25 -2 -13 -11 -23 -25 -25 -13 -2 -23 -12 -27 -28 -4 -16 -14 -26
-28 -28 -16 -2 -22 -10 -22 -28 0 -19 -5 -24 -24 -24 -18 0 -25 -6 -28 -22 -2
-17 -11 -24 -30 -26 -22 -3 -28 -9 -28 -28 0 -19 -5 -24 -25 -24 -20 0 -25 -5
-25 -25 0 -20 -5 -25 -24 -25 -18 0 -25 -6 -28 -22 -2 -16 -11 -24 -30 -26
-19 -2 -28 -10 -30 -25 -2 -16 -11 -23 -30 -25 -20 -2 -28 -9 -28 -22 0 -12
-8 -20 -22 -22 -15 -2 -24 -11 -26 -26 -3 -17 -10 -22 -33 -22 -24 0 -29 -4
-29 -25 0 -20 -5 -25 -25 -25 -20 0 -25 -5 -25 -25 0 -20 -5 -25 -24 -25 -18
0 -25 -6 -28 -22 -2 -17 -11 -24 -30 -26 -20 -2 -28 -9 -28 -23 0 -13 -7 -19
-24 -19 -18 0 -25 -6 -28 -22 -2 -16 -12 -24 -33 -28 -21 -4 -29 -11 -27 -23
2 -12 -6 -19 -28 -23 -20 -5 -30 -12 -30 -25 0 -14 -7 -19 -25 -19 -20 0 -25
-5 -25 -25 0 -22 -4 -25 -35 -25 -28 0 -35 -4 -35 -20 0 -15 -7 -20 -24 -20
-18 0 -25 -6 -28 -22 -2 -17 -11 -24 -30 -26 -22 -3 -28 -9 -28 -27 0 -18 -6
-24 -27 -27 -20 -2 -29 -9 -31 -25 -2 -15 -10 -23 -24 -23 -11 0 -22 -8 -25
-19 -4 -16 -11 -18 -41 -14 -21 3 -41 10 -46 14 -6 5 -23 9 -38 9 -15 0 -28 5
-28 10 0 6 -18 10 -40 10 -22 0 -40 5 -40 10 0 6 -13 10 -29 10 -17 0 -32 4
-35 9 -3 4 -34 12 -68 15 -34 4 -67 10 -73 14 -8 6 -151 31 -260 46 -87 12
-272 28 -360 30 -145 5 -142 4 -148 26 -3 14 -14 20 -31 20 -21 0 -26 5 -26
25 0 20 -5 25 -25 25 -18 0 -25 5 -25 19 0 13 -9 20 -30 24 -21 5 -30 12 -30
27 0 15 -7 20 -24 20 -18 0 -25 6 -28 23 -2 16 -11 23 -30 25 -20 2 -28 9 -28
23 0 14 -7 19 -30 19 -25 0 -30 4 -30 25 0 20 -5 25 -26 25 -17 0 -28 6 -31
20 -3 13 -14 20 -29 20 -19 0 -24 5 -24 25 0 21 -5 25 -30 25 -23 0 -30 4 -30
20 0 15 -7 20 -25 20 -18 0 -28 7 -35 25 -7 17 -17 25 -34 25 -18 0 -25 6 -28
23 -2 16 -11 23 -30 25 -16 2 -28 9 -28 18 0 9 -11 14 -31 14 -22 0 -32 5 -36
20 -3 13 -14 20 -28 20 -14 0 -25 7 -28 20 -3 14 -14 20 -32 20 -18 0 -29 6
-32 20 -4 13 -14 20 -30 20 -16 0 -27 7 -30 20 -4 13 -14 20 -30 20 -16 0 -27
7 -30 20 -4 14 -14 20 -33 20 -19 0 -29 6 -33 20 -3 13 -14 20 -30 20 -16 0
-26 7 -30 20 -4 14 -14 20 -35 20 -17 0 -32 6 -36 15 -3 8 -17 15 -31 15 -18
0 -25 5 -25 20 0 13 -7 20 -20 20 -15 0 -20 7 -20 29 0 20 -6 30 -20 34 -14 3
-20 14 -20 32 0 18 -6 29 -20 32 -13 4 -20 14 -20 29 0 14 -7 27 -15 30 -9 4
-15 19 -15 35 0 19 -5 29 -15 29 -10 0 -15 11 -15 35 0 24 -5 35 -15 35 -10 0
-15 10 -15 31 0 22 -5 32 -20 36 -14 4 -20 14 -20 33 0 16 -7 30 -15 34 -9 3
-15 18 -15 36 0 16 -4 30 -10 30 -5 0 -10 16 -10 35 0 19 -4 35 -10 35 -5 0
-10 16 -10 35 0 19 -4 35 -10 35 -5 0 -10 16 -10 35 0 19 -4 35 -10 35 -5 0
-10 15 -10 34 0 19 -6 36 -13 39 -7 2 -13 17 -15 32 -1 16 -6 33 -11 39 -5 6
-12 39 -16 74 -4 34 -11 62 -16 62 -5 0 -9 15 -9 34 0 19 -4 37 -9 40 -5 3
-15 53 -21 111 l-13 105 -44 0 -45 0 6 -47 c4 -27 9 -75 12 -108 3 -33 10 -64
15 -69 5 -6 9 -25 9 -43 0 -18 5 -33 10 -33 6 0 10 -7 10 -15 0 -8 -9 -15 -20
-15 -11 0 -19 3 -19 8 5 29 -3 42 -26 42 -18 0 -25 5 -25 20 0 15 -9 22 -30
27 -21 4 -30 11 -30 24 0 14 -7 19 -29 19 -20 0 -30 6 -34 20 -3 14 -14 20
-31 20 -16 0 -26 6 -26 15 0 10 -10 15 -30 15 -23 0 -33 6 -40 25 -7 18 -17
25 -35 25 -16 0 -25 6 -25 15 0 10 -10 15 -29 15 -20 0 -30 6 -34 20 -3 13
-14 20 -30 20 -16 0 -26 7 -30 20 -3 14 -14 20 -31 20 -19 0 -26 5 -26 20 0
15 -7 20 -29 20 -23 0 -30 5 -33 23 -2 14 -11 23 -25 25 -18 3 -23 10 -23 33
0 22 -5 29 -20 29 -15 0 -20 7 -20 26 0 17 -6 28 -20 31 -13 4 -20 14 -20 30
0 16 -7 27 -20 30 -14 4 -20 14 -20 34 0 19 -5 29 -15 29 -10 0 -15 10 -15 29
0 20 -6 30 -20 34 -13 3 -20 14 -20 29 0 13 -5 29 -11 35 -13 13 -2 123 12
123 5 0 9 14 9 31 0 22 5 32 20 36 13 3 20 14 20 29 0 17 6 24 19 24 11 0 23
9 26 20 4 13 15 20 32 20 16 0 27 7 30 20 3 11 12 20 21 20 9 0 31 6 50 12 29
11 35 10 43 -5 6 -10 22 -17 39 -17 22 0 29 -5 32 -22 2 -15 11 -24 26 -26 14
-2 22 -10 22 -22 0 -12 8 -20 23 -22 15 -2 23 -11 25 -28 2 -14 10 -29 18 -33
26 -15 16 -37 -16 -37 -25 0 -30 -4 -30 -25 0 -18 -5 -25 -20 -25 -20 0 -24
-9 -21 -42 1 -9 -3 -19 -9 -23 -14 -8 -13 -162 1 -171 6 -3 8 -15 6 -26 -4
-12 2 -26 14 -36 10 -9 19 -29 19 -44 0 -21 5 -28 20 -28 16 0 20 -7 20 -30 0
-23 4 -30 20 -30 15 0 20 -7 20 -26 0 -17 6 -28 19 -31 12 -3 21 -15 23 -32 2
-18 10 -27 26 -29 16 -3 22 -10 22 -28 0 -22 4 -24 46 -24 l45 0 -3 43 c-2 35
-7 43 -25 45 -17 3 -23 10 -23 28 0 17 -6 24 -19 24 -14 0 -21 8 -23 28 -2 19
-9 28 -25 30 -18 3 -23 10 -23 33 0 22 -5 29 -20 29 -16 0 -20 7 -20 30 0 20
-5 30 -15 30 -10 0 -15 10 -15 29 0 17 -4 33 -10 36 -5 3 -10 33 -10 65 0 32
5 62 10 65 6 3 10 17 10 31 0 19 5 24 25 24 20 0 25 5 25 25 0 20 5 25 25 25
20 0 25 5 25 24 0 18 6 25 23 28 16 2 23 11 25 33 2 17 8 34 13 40 12 12 12
155 -1 155 -5 0 -10 14 -10 30 0 23 -4 30 -20 30 -16 0 -20 7 -20 31 0 22 -5
32 -20 36 -14 4 -20 14 -20 34 0 19 -5 29 -15 29 -10 0 -15 10 -15 31 0 22 -5
32 -19 36 -12 3 -21 15 -23 32 -2 18 -10 27 -25 29 -18 3 -23 10 -23 32 0 22
-5 29 -22 32 -17 2 -24 11 -26 31 -2 19 -9 27 -23 27 -14 0 -19 7 -19 25 0 20
-5 25 -24 25 -19 0 -25 6 -28 28 -2 21 -9 28 -30 30 -22 3 -28 9 -28 28 0 20
-5 24 -30 24 -19 0 -30 5 -30 14 0 8 -17 16 -46 20 -76 10 -104 8 -104 -9 0
-10 -11 -15 -35 -15 -28 0 -35 -4 -35 -20 0 -16 -7 -20 -30 -20 -25 0 -30 -4
-30 -25 0 -18 -7 -26 -24 -31 -22 -5 -25 -13 -31 -75 -4 -39 -6 -72 -4 -74 2
-2 21 -6 42 -9 37 -6 37 -6 37 28 0 19 5 38 10 41 6 3 10 19 10 36 0 22 5 29
19 29 10 0 21 9 24 20 3 13 14 20 31 20 14 0 29 7 34 16 13 24 112 9 112 -17
0 -13 7 -19 24 -19 14 0 26 -7 29 -17 2 -10 8 -26 12 -35 6 -15 2 -18 -24 -18
-24 0 -31 -4 -31 -19 0 -14 -8 -21 -27 -23 -22 -2 -29 -9 -33 -33 -3 -18 -11
-30 -20 -30 -9 0 -16 -11 -18 -27 -2 -20 -9 -28 -23 -28 -15 0 -19 -7 -19 -34
0 -21 -6 -36 -15 -40 -9 -3 -15 -18 -15 -36 0 -16 -4 -30 -10 -30 -5 0 -10
-13 -10 -29 0 -17 -4 -33 -10 -36 -5 -3 -10 -22 -10 -41 0 -19 -4 -34 -9 -34
-5 0 -12 -35 -16 -77 -6 -59 -9 -73 -16 -55 -5 12 -13 22 -18 22 -5 0 -12 32
-16 70 l-7 70 -44 0 -44 0 0 -40 c0 -22 5 -40 10 -40 6 0 10 -18 10 -40 0 -22
5 -40 10 -40 6 0 10 -11 10 -25 0 -14 7 -28 15 -31 9 -4 15 -19 15 -35 0 -17
6 -32 15 -35 9 -4 15 -19 15 -35 0 -17 6 -32 15 -35 9 -4 15 -19 15 -36 0 -21
6 -31 20 -35 14 -4 20 -14 20 -34 0 -19 5 -29 15 -29 10 0 15 -10 15 -29 0
-21 6 -32 20 -36 12 -4 20 -15 20 -30 0 -14 7 -25 20 -28 14 -4 20 -14 20 -35
0 -21 6 -31 20 -35 14 -3 20 -14 20 -31 0 -16 6 -26 15 -26 10 0 15 -10 15
-30 0 -27 3 -30 30 -30 27 0 30 -3 30 -30 0 -25 4 -30 25 -30 18 0 25 -5 25
-20 0 -15 7 -20 29 -20 23 0 30 -5 33 -22 2 -16 11 -24 29 -26 17 -2 29 -11
32 -23 3 -12 14 -19 30 -19 16 0 26 -7 30 -20 4 -15 14 -20 36 -20 21 0 31 -5
31 -15 0 -10 10 -15 29 -15 20 0 30 -6 34 -20 3 -13 14 -20 30 -20 16 0 26 -7
30 -20 3 -14 14 -20 32 -20 18 0 29 -6 32 -20 3 -13 14 -20 29 -20 17 0 24 -6
24 -20 0 -15 7 -20 29 -20 23 0 30 -5 33 -22 2 -17 9 -22 24 -20 17 2 23 -4
27 -28 5 -24 12 -30 32 -30 20 0 25 -5 25 -25 0 -18 5 -25 20 -25 11 0 23 -8
26 -17 3 -10 10 -26 15 -35 5 -10 9 -29 9 -43 0 -14 5 -25 10 -25 6 0 10 -16
10 -35 0 -19 5 -35 10 -35 6 0 10 -16 10 -35 0 -24 5 -35 15 -35 10 0 15 -10
15 -29 0 -17 5 -33 10 -36 6 -3 10 -22 10 -41 0 -24 5 -34 15 -34 11 0 15 -11
15 -37 -1 -34 -2 -36 -14 -20 -7 9 -25 17 -40 17 -15 0 -29 7 -32 15 -4 9 -19
15 -35 15 -19 0 -29 5 -29 15 0 10 -10 15 -31 15 -22 0 -32 5 -36 20 -4 13
-14 20 -30 20 -16 0 -27 7 -30 20 -3 13 -14 20 -28 20 -14 0 -25 7 -28 20 -3
14 -14 20 -32 20 -18 0 -29 6 -32 20 -3 13 -14 20 -29 20 -17 0 -24 6 -24 20
0 16 -7 20 -30 20 -23 0 -33 6 -39 22 -5 15 -17 23 -32 23 -17 0 -25 6 -27 23
-2 15 -10 22 -27 22 -16 0 -25 7 -29 25 -5 18 -13 25 -31 25 -18 0 -25 5 -25
20 0 15 -7 20 -25 20 -20 0 -25 5 -25 24 0 18 -6 25 -22 28 -17 2 -24 11 -26
31 -3 21 -9 27 -28 27 -19 0 -24 5 -24 25 0 18 -5 25 -20 25 -16 0 -20 7 -20
30 0 23 -5 30 -19 30 -14 0 -21 8 -23 28 -2 19 -9 28 -25 30 -18 3 -23 10 -23
33 0 22 -5 29 -20 29 -16 0 -20 7 -20 30 0 23 -4 30 -20 30 -15 0 -20 7 -20
29 0 23 -5 30 -22 33 -17 2 -24 11 -26 32 -2 18 -11 30 -23 33 -12 4 -19 14
-19 29 0 14 -7 27 -15 30 -9 4 -15 19 -15 35 0 16 -4 29 -10 29 -5 0 -10 14
-10 31 0 22 -5 32 -20 36 -14 4 -20 14 -20 34 0 19 -5 29 -15 29 -10 0 -15 10
-15 30 0 18 -6 33 -15 36 -9 4 -15 19 -15 35 0 16 -4 29 -10 29 -5 0 -10 15
-10 34 0 19 -4 37 -9 40 -5 3 -12 36 -16 73 -4 38 -11 70 -16 73 -16 10 -23
348 -9 458 7 56 16 105 21 108 5 3 9 19 9 35 0 17 6 32 15 35 9 4 15 19 15 35
0 16 5 29 10 29 6 0 10 16 10 35 0 22 6 38 15 41 9 4 15 19 15 35 0 19 5 29
15 29 10 0 15 10 15 30 0 18 6 33 15 36 9 4 15 19 15 35 0 22 5 29 20 29 15 0
20 7 20 25 0 19 5 25 21 25 12 0 23 8 26 20 4 14 14 20 33 20 19 0 29 6 33 19
3 13 16 21 38 24 55 7 143 -4 152 -19z m873 -350 c8 -83 -2 -407 -14 -454 -6
-19 -11 -33 -12 -30 -4 13 -9 78 -16 220 -7 154 7 330 26 330 5 0 12 -30 16
-66z m-816 -154 c0 -15 7 -20 25 -20 21 0 25 -5 25 -30 0 -23 4 -30 20 -30 16
0 20 -7 20 -30 0 -23 4 -30 20 -30 16 0 20 -7 20 -30 0 -23 4 -30 20 -30 16 0
20 -7 20 -30 0 -20 5 -30 15 -30 10 0 15 -10 15 -31 0 -22 5 -32 20 -36 14 -4
20 -14 20 -34 0 -19 5 -29 15 -29 12 0 15 -13 15 -61 0 -52 -2 -60 -16 -55 -9
3 -22 6 -29 6 -8 0 -15 13 -17 33 -2 26 -8 33 -30 35 -19 2 -28 10 -30 25 -2
16 -10 22 -28 22 -15 0 -26 7 -28 18 -2 9 -11 17 -20 17 -9 0 -28 6 -42 13
-16 9 -49 12 -92 9 -54 -3 -67 -8 -71 -23 -4 -13 -14 -19 -36 -19 -24 0 -31
-4 -31 -20 0 -15 -7 -20 -25 -20 -18 0 -25 -5 -25 -19 0 -10 -7 -24 -15 -31
-13 -11 -15 -7 -15 28 0 23 4 43 9 47 5 3 13 34 16 70 4 36 11 65 16 65 5 0 9
16 9 35 0 24 5 35 15 35 10 0 15 10 15 29 0 22 6 30 25 35 18 5 25 13 25 31 0
18 5 25 19 25 13 0 21 8 23 22 2 13 11 24 23 27 11 2 24 9 28 17 13 23 57 18
57 -6z m1880 -39 c0 -14 8 -21 28 -23 19 -2 28 -9 30 -25 2 -15 11 -23 30 -25
19 -2 28 -10 30 -25 2 -17 10 -23 27 -23 17 0 25 -6 27 -22 2 -17 11 -24 31
-26 19 -2 27 -9 27 -23 0 -14 7 -19 30 -19 23 0 30 -4 30 -20 0 -18 -9 -19
-187 -22 -104 -2 -189 -2 -191 -2 -5 3 -4 36 3 74 3 19 10 67 16 105 6 39 16
76 21 83 16 19 48 15 48 -7z m-287 -173 c7 -121 5 -128 -45 -128 -16 0 -28 -4
-28 -10 0 -5 -18 -10 -40 -10 -22 0 -40 -4 -40 -10 0 -5 -9 -10 -20 -10 -28 0
-25 28 3 32 16 2 21 9 19 26 -2 16 4 25 22 32 18 6 26 17 26 34 0 15 7 25 20
29 14 3 20 14 20 31 0 16 6 26 15 26 10 0 15 10 15 28 0 28 7 42 20 42 4 0 10
-50 13 -112z m850 -308 c3 -14 14 -20 31 -20 19 0 26 -5 26 -20 0 -15 -7 -20
-25 -20 -20 0 -25 -5 -25 -24 0 -18 -6 -25 -22 -28 -15 -2 -24 -11 -26 -25 -2
-15 -11 -23 -30 -25 -15 -2 -28 -10 -28 -18 -1 -8 -2 -20 -3 -27 0 -6 -11 -13
-23 -15 -15 -2 -24 -11 -26 -24 -2 -16 -12 -23 -35 -27 -40 -6 -49 2 -45 39 2
21 9 30 26 32 12 2 22 10 22 18 0 9 11 14 29 14 25 0 30 4 33 28 2 19 9 28 26
30 17 3 22 10 22 31 0 19 8 32 25 41 16 8 25 22 25 37 0 28 16 30 23 3z m3867
-236 c0 -8 -5 -12 -10 -9 -6 4 -8 11 -5 16 9 14 15 11 15 -7z m-3873 -75 c45
-8 63 -15 63 -26 0 -29 -171 -5 -255 34 -28 13 -24 14 49 9 44 -3 108 -11 143
-17z m2851 -90 c2 -11 -7 -18 -28 -22 -18 -4 -30 -13 -30 -22 0 -9 -9 -15 -25
-15 -18 0 -28 -7 -35 -25 -7 -18 -17 -25 -35 -25 -18 0 -25 -5 -25 -20 0 -16
-7 -20 -30 -20 -19 0 -30 -5 -30 -14 0 -18 -107 -33 -123 -17 -6 6 -26 11 -44
11 -23 0 -33 5 -33 15 0 9 -9 15 -25 15 -27 0 -34 15 -10 24 8 3 15 1 15 -4 0
-6 33 -10 75 -10 60 0 75 3 75 15 0 10 10 15 34 15 28 0 35 4 40 25 5 18 13
25 31 25 15 0 25 6 25 14 0 8 15 16 35 20 19 3 51 9 70 12 19 3 35 11 35 16 0
16 35 4 38 -13z m-5740 -215 c12 -4 22 -14 22 -24 0 -29 11 -50 26 -50 9 0 14
-11 14 -30 0 -23 4 -30 20 -30 16 0 20 -7 20 -31 0 -22 5 -32 20 -36 13 -3 20
-14 20 -29 0 -17 7 -25 25 -30 18 -4 25 -13 25 -29 0 -14 7 -25 20 -28 14 -3
20 -14 20 -31 0 -19 5 -26 20 -26 15 0 20 -7 20 -29 0 -23 5 -30 23 -33 16 -2
23 -11 25 -30 3 -22 9 -28 28 -28 20 0 24 -5 24 -30 0 -23 4 -30 20 -30 15 0
20 -7 20 -24 0 -19 6 -25 27 -28 20 -2 29 -10 33 -28 4 -16 14 -26 28 -28 14
-2 22 -10 22 -23 0 -14 7 -19 29 -19 23 0 30 -5 33 -22 2 -16 11 -24 29 -26
17 -2 29 -11 32 -23 3 -13 14 -19 31 -19 21 0 26 -5 26 -25 0 -21 5 -25 30
-25 20 0 30 -5 30 -15 0 -10 10 -15 30 -15 25 0 30 -4 30 -25 0 -21 5 -25 30
-25 23 0 30 -4 30 -20 0 -15 7 -20 29 -20 20 0 30 -6 34 -20 3 -13 14 -20 30
-20 14 0 27 -7 31 -15 3 -9 18 -15 35 -15 20 0 30 -6 34 -20 4 -15 14 -20 36
-20 21 0 31 -5 31 -15 0 -10 11 -15 35 -15 19 0 35 -4 35 -10 0 -5 9 -10 19
-10 11 0 23 -4 26 -10 3 -5 13 -10 20 -10 25 0 55 -33 55 -61 0 -18 6 -28 20
-32 15 -4 20 -14 20 -36 0 -28 -3 -31 -29 -31 -16 0 -31 6 -35 15 -3 9 -18 15
-35 15 -16 0 -31 6 -35 15 -3 9 -18 15 -35 15 -16 0 -31 6 -35 15 -3 9 -18 15
-35 15 -16 0 -31 6 -34 14 -4 9 -29 17 -71 21 -46 5 -66 12 -66 21 0 9 -12 14
-35 14 -19 0 -35 4 -35 9 0 5 -17 11 -37 14 -21 3 -49 8 -63 12 -14 3 -43 8
-65 12 -22 3 -44 11 -50 18 -5 7 -47 18 -92 25 -65 10 -84 16 -88 31 -4 11
-15 19 -26 19 -14 0 -19 7 -19 25 0 20 -5 25 -25 25 -21 0 -25 5 -25 30 0 23
-5 30 -19 30 -14 0 -21 8 -23 28 -2 19 -9 28 -25 30 -15 2 -23 11 -25 30 -2
19 -10 28 -25 30 -15 2 -23 10 -23 24 0 11 -8 22 -19 25 -12 3 -21 15 -23 32
-2 18 -10 27 -25 29 -15 2 -23 11 -25 30 -2 19 -10 28 -25 30 -17 3 -23 10
-23 28 0 17 -5 24 -20 24 -16 0 -20 7 -20 30 0 23 -4 30 -20 30 -15 0 -20 7
-20 29 0 23 -5 30 -22 33 -17 2 -24 11 -26 31 -2 19 -9 27 -23 27 -15 0 -19 7
-19 35 0 24 -5 35 -15 35 -9 0 -15 10 -15 26 0 17 -6 28 -20 31 -14 4 -20 14
-20 34 0 18 -5 29 -14 29 -15 0 -26 21 -26 51 0 11 -7 19 -16 19 -12 0 -14 9
-12 43 3 39 5 42 33 45 17 1 39 7 50 12 11 5 31 11 45 13 14 2 27 5 30 6 3 0
15 -2 28 -5z m4292 -110 c2 -3 -3 -10 -13 -15 -9 -6 -17 -21 -17 -35 0 -14 -7
-32 -15 -40 -8 -9 -15 -26 -15 -40 0 -14 -6 -24 -14 -24 -8 0 -17 -12 -19 -27
-2 -16 -5 2 -6 38 0 36 2 88 6 114 l6 47 41 -6 c22 -4 43 -9 46 -12z m-2890
-1209 c0 -8 -4 -15 -10 -15 -5 0 -10 7 -10 15 0 8 5 15 10 15 6 0 10 -7 10
-15z"/>
<path d="M3327 3963 c-4 -3 -7 -24 -7 -45 0 -35 2 -38 29 -38 16 0 31 -6 35
-15 3 -9 18 -15 36 -15 20 0 30 -5 30 -15 0 -10 11 -15 35 -15 24 0 35 -5 35
-15 0 -10 10 -15 30 -15 20 0 30 -5 30 -15 0 -10 10 -15 29 -15 16 0 36 -7 45
-15 8 -8 26 -15 40 -15 14 0 28 -4 31 -10 3 -5 22 -10 41 -10 19 0 34 -4 34
-9 0 -4 51 -11 113 -15 128 -8 540 18 545 34 2 6 19 10 37 10 19 0 37 5 40 10
3 6 19 10 34 10 15 0 31 4 36 9 6 5 24 11 40 13 28 3 30 6 30 43 0 39 -1 40
-38 41 -21 1 -40 -3 -43 -7 -3 -5 -18 -9 -34 -9 -16 0 -32 -4 -35 -10 -3 -5
-19 -10 -34 -10 -15 0 -31 -4 -37 -10 -30 -30 -618 -50 -646 -22 -6 6 -24 12
-39 12 -15 0 -31 5 -34 10 -3 6 -19 10 -36 10 -16 0 -29 5 -29 10 0 6 -15 10
-34 10 -21 0 -36 6 -40 15 -3 8 -17 15 -31 15 -14 0 -28 7 -31 15 -4 9 -19 15
-36 15 -21 0 -31 6 -35 20 -4 14 -14 20 -33 20 -16 0 -30 7 -34 15 -5 15 -57
21 -69 8z"/>
<path d="M4375 1977 c-165 -4 -306 -9 -313 -12 -8 -3 -12 -17 -10 -37 3 -28 7
-33 33 -36 17 -2 34 -8 39 -13 6 -5 22 -9 37 -9 18 0 28 -6 32 -20 4 -15 14
-20 36 -20 17 0 31 -4 31 -10 0 -5 15 -10 34 -10 19 0 38 -4 41 -10 3 -5 19
-10 35 -10 16 0 32 -4 35 -10 3 -5 19 -10 36 -10 16 0 29 -4 29 -10 0 -5 15
-10 33 -10 18 0 38 -5 44 -11 6 -6 59 -13 117 -16 l106 -6 0 40 0 40 -102 6
c-76 5 -104 10 -110 22 -5 8 -22 15 -38 15 -16 0 -32 5 -35 10 -3 6 -17 10
-30 10 -13 0 -27 5 -30 10 -3 6 -23 11 -43 11 -35 1 -34 2 13 11 42 8 787 2
875 -6 14 -2 37 -4 52 -4 40 -3 27 -39 -14 -39 -16 0 -33 -4 -36 -10 -8 -12
-24 -14 -122 -16 l-75 -2 -3 -41 -3 -41 51 -7 c68 -9 170 3 177 20 3 8 18 14
33 14 16 0 30 7 34 15 3 9 18 15 35 15 16 0 31 6 35 15 3 8 17 15 31 15 20 0
25 5 25 25 0 18 5 25 20 25 17 0 20 7 20 38 l0 39 -95 11 c-189 24 -599 31
-1060 19z"/>
</g>
</svg>
